<?xml version="1.0" encoding="UTF-8" standalone="no" ?>
<!DOCTYPE svg PUBLIC "-//W3C//DTD SVG 1.1//EN" "http://www.w3.org/Graphics/SVG/1.1/DTD/svg11.dtd">
<svg xmlns="http://www.w3.org/2000/svg" xmlns:xlink="http://www.w3.org/1999/xlink" version="1.1" width="74mm" height="105mm" viewBox="0 0 209.76378 297.6378" xml:space="preserve">
<desc>Created with Fabric.js 5.3.0</desc>
<defs>
</defs>
<g transform="matrix(2.9571383603 0 0 2.9571383603 107.742664376 148.8189)" id="MWMV0V8xYNLDtFFXBG7C9"  >
<g style="" vector-effect="non-scaling-stroke"   >
		<g transform="matrix(1 0 0 1 0 0.0005)" id="dFlids-_jUXOX2iAToR67"  >
<path style="stroke: none; stroke-width: 1; stroke-dasharray: none; stroke-linecap: butt; stroke-dashoffset: 0; stroke-linejoin: miter; stroke-miterlimit: 4; fill: rgb(179,181,179); fill-rule: nonzero; opacity: 1;" vector-effect="non-scaling-stroke"  transform=" translate(-40, -40.0005)" d="M 61.107 21.345 L 61.107 1.684 C 61.107 0.7539999999999999 60.354 0 59.423 0 L 20.577 0 C 19.647000000000002 0 18.893 0.754 18.893 1.684 L 18.893 21.345000000000002 C 18.893 29.407000000000004 23.441000000000003 36.532000000000004 30.389000000000003 40 C 23.441000000000003 43.469 18.893 50.595 18.893 58.656 L 18.893 78.31700000000001 C 18.893 79.24700000000001 19.647000000000002 80.001 20.577 80.001 L 59.423 80.001 C 60.353 80.001 61.107 79.247 61.107 78.31700000000001 L 61.107 58.653 C 61.107 50.592 56.559 43.466 49.61 39.997 C 56.558 36.532 61.107 29.407 61.107 21.345 z M 44.316 38.362 C 43.558 38.542 43.023 39.22 43.023 40 C 43.023 40.779 43.558 41.456 44.316 41.638 C 52.22 43.525 57.74 50.522999999999996 57.74 58.656 L 57.74 76.633 L 22.261 76.633 L 22.261 58.653 C 22.261 50.519999999999996 27.781 43.521 35.685 41.635 C 36.443000000000005 41.454 36.978 40.775999999999996 36.978 39.997 C 36.978 39.217 36.443000000000005 38.54 35.685 38.359 C 27.781000000000002 36.473 22.261000000000003 29.476000000000003 22.261000000000003 21.342000000000002 L 22.261000000000003 3.367 L 57.74 3.367 L 57.74 21.345000000000002 C 57.739 29.478 52.22 36.476 44.316 38.362 z" stroke-linecap="round" />
</g>
		<g transform="matrix(1 0 0 1 -0.0495 25.4929996411)" id="JjMiqfqWzIc-G4LyQzgLa"  >
<path style="stroke: none; stroke-width: 1; stroke-dasharray: none; stroke-linecap: butt; stroke-dashoffset: 0; stroke-linejoin: miter; stroke-miterlimit: 4; fill: rgb(179,181,179); fill-rule: nonzero; opacity: 1;" vector-effect="non-scaling-stroke"  transform=" translate(-39.9505, -65.4929996411)" d="M 46.368 60.469 L 54.319 71.07300000000001 C 54.647000000000006 71.51 54.699000000000005 72.09500000000001 54.455000000000005 72.584 C 54.211000000000006 73.07300000000001 53.711000000000006 73.381 53.16400000000001 73.381 L 26.737 73.381 C 26.189999999999998 73.381 25.689999999999998 73.072 25.445999999999998 72.584 C 25.201999999999998 72.096 25.253999999999998 71.51 25.581999999999997 71.07300000000001 L 33.483 60.53200000000001 C 35.062999999999995 58.64800000000001 37.403 57.60500000000001 39.95099999999999 57.60500000000001 C 42.498 57.604 44.838 58.648 46.368 60.469 z" stroke-linecap="round" />
</g>
</g>
</g>
</svg>